<svg width="998" height="998" viewBox="0 0 998 998" fill="none" xmlns="http://www.w3.org/2000/svg">
<rect width="998" height="998" fill="white"/>
<path d="M490.6 769.8C596.2 769.8 665 688.2 665 552.2C665 429 596.2 335.4 489.8 335.4C433.8 335.4 398.6 358.6 373 393.8H370.6V185H240.2V757H365V705H366.6C392.2 747.4 436.2 769.8 490.6 769.8ZM453.8 666.6C400.2 666.6 366.6 620.2 366.6 552.2C366.6 485 394.6 434.6 452.2 434.6C505 434.6 533 481 533 551.4C533 622.6 505 666.6 453.8 666.6Z" fill="black"/>
<path d="M755.35 614.6C712.15 614.6 680.95 645 680.95 687.4C680.95 729.8 712.15 761 755.35 761C798.55 761 830.55 729.8 830.55 687.4C830.55 645 798.55 614.6 755.35 614.6Z" fill="#FF0099"/>
</svg>
