<svg width="920" height="221" viewBox="0 0 920 221" fill="none" xmlns="http://www.w3.org/2000/svg">
<path d="M92.4134 220.154C131.386 220.154 156.778 190.052 156.778 139.883C156.778 94.4359 131.386 59.9078 92.1181 59.9078C71.4506 59.9078 58.4596 68.466 49.0116 81.451H48.1258V4.42668H0V215.432H46.059V196.25H46.6496C56.0976 211.891 72.3363 220.154 92.4134 220.154ZM78.8318 182.084C59.0501 182.084 46.6496 164.968 46.6496 139.883C46.6496 115.094 56.9833 96.5017 78.2413 96.5017C97.7279 96.5017 108.062 113.618 108.062 139.588C108.062 165.853 97.7279 182.084 78.8318 182.084Z" fill="white"/>
<path d="M240.906 219.859C260.097 219.859 275.45 214.842 288.146 205.988C301.432 196.84 310.29 183.855 313.537 170.28H266.593C262.459 179.723 254.192 185.33 241.496 185.33C221.715 185.33 210.495 172.641 207.542 152.278H316.195C316.49 121.586 307.632 95.3212 289.622 78.7949C276.631 66.9905 259.507 59.9078 237.953 59.9078C191.894 59.9078 160.302 94.4359 160.302 139.588C160.302 185.33 191.008 219.859 240.906 219.859ZM207.838 123.652C211.085 105.65 220.534 94.1408 238.839 94.1408C254.487 94.1408 265.707 105.65 267.478 123.652H207.838Z" fill="white"/>
<path d="M326.697 215.432H375.413V4.42668H326.697V215.432Z" fill="white"/>
<path d="M417.078 0C402.02 0 390.505 10.624 390.505 25.6748C390.505 40.7255 402.02 51.3495 417.078 51.3495C432.136 51.3495 443.651 40.7255 443.651 25.6748C443.651 10.624 432.136 0 417.078 0ZM392.867 215.432H440.993V64.3344H392.867V215.432Z" fill="white"/>
<path d="M531.993 219.859C551.184 219.859 566.537 214.842 579.233 205.988C592.519 196.84 601.376 183.855 604.624 170.28H557.679C553.546 179.723 545.279 185.33 532.583 185.33C512.801 185.33 501.582 172.641 498.629 152.278H607.281C607.577 121.586 598.719 95.3212 580.709 78.7949C567.718 66.9905 550.593 59.9078 529.04 59.9078C482.981 59.9078 451.389 94.4359 451.389 139.588C451.389 185.33 482.095 219.859 531.993 219.859ZM498.925 123.652C502.172 105.65 511.62 94.1408 529.926 94.1408C545.574 94.1408 556.794 105.65 558.565 123.652H498.925Z" fill="white"/>
<path d="M653.022 215.432H704.986L757.246 64.3344H709.12L688.157 132.505C683.728 147.556 679.89 162.902 679.89 162.902H679.299C679.299 162.902 675.461 147.556 671.032 132.505L650.365 64.3344H600.763L653.022 215.432Z" fill="white"/>
<path d="M762.092 215.432H810.218V147.556C810.218 114.799 829.114 100.338 858.639 104.47H859.82V63.154C857.753 62.2687 854.8 61.9735 850.372 61.9735C832.066 61.9735 819.666 69.9416 809.037 87.9434H808.151V64.3344H762.092V215.432Z" fill="white"/>
<ellipse cx="892.32" cy="189.978" rx="27.6797" ry="27.6668" fill="#FF0099"/>
</svg>
