<?xml version="1.0" encoding="utf-8"?>
<!-- Generator: Adobe Illustrator 23.0.1, SVG Export Plug-In . SVG Version: 6.00 Build 0)  -->
<svg version="1.1" id="Layer_1" xmlns="http://www.w3.org/2000/svg" xmlns:xlink="http://www.w3.org/1999/xlink" x="0px" y="0px"
	 viewBox="0 0 2843 949" style="enable-background:new 0 0 2843 949;" xml:space="preserve">
<style type="text/css">
	.st0{fill:#FF0099;}
</style>
<path d="M433.6,781.8c105.6,0,174.4-81.6,174.4-217.6c0-123.2-68.8-216.8-175.2-216.8c-56,0-91.2,23.2-116.8,58.4h-2.4V197H183.2
	v572H308v-52h1.6C335.2,759.4,379.2,781.8,433.6,781.8z M396.8,678.6c-53.6,0-87.2-46.4-87.2-114.4c0-67.2,28-117.6,85.6-117.6
	c52.8,0,80.8,46.4,80.8,116.8C476,634.6,448,678.6,396.8,678.6z M836,781c52,0,93.6-13.6,128-37.6c36-24.8,60-60,68.8-96.8H905.5
	c-11.2,25.6-33.6,40.8-68,40.8c-53.6,0-84-34.4-92-89.6h294.4c0.8-83.2-23.2-154.4-72-199.2c-35.2-32-81.6-51.2-140-51.2
	c-124.8,0-210.4,93.6-210.4,216C617.5,687.4,700.8,781,836,781z M746.3,520.2c8.8-48.8,34.4-80,84-80c42.4,0,72.8,31.2,77.6,80
	H746.3z M1068.4,769h132V197h-132V769z M1313.3,185c-40.8,0-72,28.8-72,69.6s31.2,69.6,72,69.6c40.8,0,72-28.8,72-69.6
	S1354.1,185,1313.3,185z M1247.7,769h130.4V359.4h-130.4V769z M1624.7,781c52,0,93.6-13.6,128-37.6c36-24.8,60-60,68.8-96.8h-127.2
	c-11.2,25.6-33.6,40.8-68,40.8c-53.6,0-84-34.4-92-89.6h294.4c0.8-83.2-23.2-154.4-72-199.2c-35.2-32-81.6-51.2-140-51.2
	c-124.8,0-210.4,93.6-210.4,216C1406.3,687.4,1489.5,781,1624.7,781z M1535.1,520.2c8.8-48.8,34.4-80,84-80
	c42.4,0,72.8,31.2,77.6,80H1535.1z M1952.6,769h140.8L2235,359.4h-130.4l-56.8,184.8c-12,40.8-22.4,82.4-22.4,82.4h-1.6
	c0,0-10.4-41.6-22.4-82.4l-56-184.8H1811L1952.6,769z M2248.1,769h130.4V585c0-88.8,51.2-128,131.2-116.8h3.2v-112
	c-5.6-2.4-13.6-3.2-25.6-3.2c-49.6,0-83.2,21.6-112,70.4h-2.4v-64h-124.8V769z"/>
<path class="st0" d="M2600.8,626.6c-43.2,0-74.4,30.4-74.4,72.8c0,42.4,31.2,73.6,74.4,73.6s75.2-31.2,75.2-73.6
	C2676,657,2644,626.6,2600.8,626.6z"/>
</svg>
