<?xml version="1.0" encoding="utf-8"?>
<!-- Generator: Adobe Illustrator 23.0.1, SVG Export Plug-In . SVG Version: 6.00 Build 0)  -->
<svg version="1.1" id="Layer_1" xmlns="http://www.w3.org/2000/svg" xmlns:xlink="http://www.w3.org/1999/xlink" x="0px" y="0px"
	 viewBox="0 0 2854 1086" style="enable-background:new 0 0 2854 1086;" xml:space="preserve">
<style type="text/css">
	.st0{fill:#FF0099;}
	.st1{fill:#797979;}
</style>
<path d="M438.6,821.8c105.6,0,174.4-81.6,174.4-217.6c0-123.2-68.8-216.8-175.2-216.8c-56,0-91.2,23.2-116.8,58.4h-2.4V237H188.2
	v572H313v-52h1.6C340.2,799.4,384.2,821.8,438.6,821.8z M401.8,718.6c-53.6,0-87.2-46.4-87.2-114.4c0-67.2,28-117.6,85.6-117.6
	c52.8,0,80.8,46.4,80.8,116.8C481,674.6,453,718.6,401.8,718.6z M841,821c52,0,93.6-13.6,128-37.6c36-24.8,60-60,68.8-96.8H910.5
	c-11.2,25.6-33.6,40.8-68,40.8c-53.6,0-84-34.4-92-89.6h294.4c0.8-83.2-23.2-154.4-72-199.2c-35.2-32-81.6-51.2-140-51.2
	c-124.8,0-210.4,93.6-210.4,216C622.5,727.4,705.8,821,841,821z M751.3,560.2c8.8-48.8,34.4-80,84-80c42.4,0,72.8,31.2,77.6,80
	H751.3z M1073.4,809h132V237h-132V809z M1318.3,225c-40.8,0-72,28.8-72,69.6s31.2,69.6,72,69.6s72-28.8,72-69.6
	S1359.1,225,1318.3,225z M1252.7,809h130.4V399.4h-130.4V809z M1629.7,821c52,0,93.6-13.6,128-37.6c36-24.8,60-60,68.8-96.8h-127.2
	c-11.2,25.6-33.6,40.8-68,40.8c-53.6,0-84-34.4-92-89.6h294.4c0.8-83.2-23.2-154.4-72-199.2c-35.2-32-81.6-51.2-140-51.2
	c-124.8,0-210.4,93.6-210.4,216C1411.3,727.4,1494.5,821,1629.7,821z M1540.1,560.2c8.8-48.8,34.4-80,84-80
	c42.4,0,72.8,31.2,77.6,80H1540.1z M1957.6,809h140.8L2240,399.4h-130.4l-56.8,184.8c-12,40.8-22.4,82.4-22.4,82.4h-1.6
	c0,0-10.4-41.6-22.4-82.4l-56-184.8H1816L1957.6,809z M2253.1,809h130.4V625c0-88.8,51.2-128,131.2-116.8h3.2v-112
	c-5.6-2.4-13.6-3.2-25.6-3.2c-49.6,0-83.2,21.6-112,70.4h-2.4v-64h-124.8L2253.1,809L2253.1,809z"/>
<path class="st0" d="M2605.8,666.6c-43.2,0-74.4,30.4-74.4,72.8c0,42.4,31.2,73.6,74.4,73.6s75.2-31.2,75.2-73.6
	S2649,666.6,2605.8,666.6z"/>
<path class="st1" d="M1300.4,924.9c-5.3,0-8.8-1.9-8.8-7.2s3.8-7,11.7-8.8c3.7-0.9,7.8-1.8,10.4-3.3v8.5
	C1313.7,919.6,1309,924.9,1300.4,924.9z M1315.4,934h14.4v-0.5c-1.3-1-2-3.5-2-7.8V897c0-13.2-6.8-20.8-23.8-20.8
	c-16.5,0-23.9,8.7-24.3,18.6h13.3c0.4-5.4,3.8-7.9,10.9-7.9c6.3,0,9.5,2.6,9.5,6.7c0,4.3-4.3,5.1-13.6,6.4
	c-12.5,1.8-22.7,5.7-22.7,18.1c0,11.2,8.1,17.3,19.7,17.3c9.7,0,13.8-3.3,16.6-7.6h0.2C1313.9,930.3,1314.5,932.9,1315.4,934z
	 M1351.9,877.6h-14.6V934h15v-32c0-7.7,4.8-13,11.4-13c6.3,0,9.8,4.3,9.8,10.3V934h15v-36.8c0-12.3-7.8-21.1-19.5-21.1
	c-7.7,0-12.9,3.2-16.7,9.2h-0.3v-7.7H1351.9z M1416.4,934h15v-78.7h-15V934z M1465.8,918.6c-7.7,0-12.8-5.6-12.8-15.2
	c0-9.5,5.1-15.4,12.7-15.4c9,0,13.4,7,13.4,15.3C1479.1,911.7,1475.3,918.6,1465.8,918.6z M1466.1,953.2c8.4,0,15.6-2,20.3-6.4
	c4.2-3.8,6.7-9.2,6.7-17.2v-52.1h-14.4v5.9h-0.2c-3.4-4.7-8.6-7.5-15.6-7.5c-14.3,0-24.4,10.8-24.4,27.6c0,17,12.3,27,24.9,27
	c7.1,0,11.4-2.9,14.7-6.6h0.3v6.2c0,7.7-4.1,11.8-12.5,11.8c-6.9,0-10.1-2.8-11.3-6.3h-14.8C1441.2,946.7,1450.7,953.2,1466.1,953.2
	z M1534.2,935.7c14.2,0,23.9-11.6,23.9-29.8c0-17.6-10.1-29.8-24.3-29.8c-7.8,0-12.7,3.6-15.7,8.4h-0.3v-29h-15V934h14.4v-7h0.2
	C1520.7,932.2,1526.3,935.7,1534.2,935.7z M1530.9,923.1c-8.4,0-13.5-6.6-13.5-16.9c0-10.5,3.5-18,13-18c8.4,0,12.5,7.3,12.5,17.7
	C1542.9,916.7,1538.6,923.1,1530.9,923.1z M1560.1,887.5h7.8v33.1c0,10.7,8,13.5,15.3,13.5c5.9,0,9.3-0.2,9.3-0.2v-11
	c0,0-2.5,0.1-4.4,0.1c-3.3,0-5.6-1.4-5.6-5.6v-29.9h9.7v-9.9h-9.7V860h-14.6v17.6h-7.8L1560.1,887.5L1560.1,887.5z M1637.6,952.5h15
	v-74.9h-14.4v7h-0.3c-3.4-5.4-8.1-8.6-15.8-8.6c-15,0-24.4,12.2-24.4,29.8c0,18.3,10.8,29.8,24.4,29.8c7.6,0,12.7-3.5,15.4-8h0.2
	L1637.6,952.5L1637.6,952.5z M1625.2,922.9c-7.9,0-12.4-5.9-12.4-16.6c0-10.7,3.2-18.4,12.5-18.4c9,0,12.7,8.1,12.7,18.4
	C1637.9,916.5,1633.1,922.9,1625.2,922.9z M1661.3,903.4h21.7v22.3h11.4v-22.3h21.8v-11h-21.8v-22.3H1683v22.3h-21.7V903.4z
	 M1769.6,935.7c15.1,0,24.4-9.6,25.4-21.6h-14.4c-1,6.4-5.3,9.6-11.3,9.6c-9.1,0-13.4-7.1-13.4-17.8c0-10.9,4.6-17.8,13.6-17.8
	c5.5,0,9.4,3.7,10.3,8.7h14.6c-2-12.2-11-20.7-25.6-20.7c-17.2,0-28.2,13-28.2,29.8S1751.7,935.7,1769.6,935.7z M1816.4,855.3h-15
	V934h15v-32c0-7.7,4.8-13,11.4-13c6.3,0,9.8,4.3,9.8,10.3V934h15v-36.8c0-12.3-7.8-21.1-19.5-21.1c-7.7,0-12.3,3-16.4,8.9h-0.3
	V855.3z M1876.3,877.6h-14.4V934h15v-27.5c0-11.9,7-17,16.8-16.1h0.3v-13.1c-0.9-0.3-1.9-0.4-3.5-0.4c-6.6,0-10.4,3.3-13.9,9.7h-0.3
	V877.6z M1899.5,862.8c0,4.8,3.7,8.2,8.4,8.2s8.4-3.4,8.4-8.2c0-4.7-3.7-8.1-8.4-8.1S1899.5,858.1,1899.5,862.8z M1900.4,934h15
	v-56.4h-15V934z M1947.9,935.7c14.1,0,23.8-6.8,23.8-18.2c0-13.2-10.5-15.8-19.9-17.8c-8-1.6-15.5-2.1-15.5-6.9
	c0-4.1,3.8-6.3,9.7-6.3c6.4,0,10.2,2.2,10.9,8.2h13.5c-1.1-11.3-9.3-18.7-24.2-18.7c-12.9,0-23,5.8-23,18c0,12.3,9.9,15.1,20,17
	c7.7,1.5,14.8,2.1,14.8,7.5c0,4-3.7,6.5-10.3,6.5c-6.7,0-11.3-2.9-12.3-9.4h-13.9C1922.4,927.7,1931.5,935.7,1947.9,935.7z
	 M1974,887.5h7.8v33.1c0,10.7,8,13.5,15.3,13.5c5.9,0,9.3-0.2,9.3-0.2v-11c0,0-2.5,0.1-4.4,0.1c-3.3,0-5.6-1.4-5.6-5.6v-29.9h9.7
	v-9.9h-9.7V860h-14.6v17.6h-7.8L1974,887.5L1974,887.5z M2013,862.8c0,4.8,3.7,8.2,8.4,8.2s8.4-3.4,8.4-8.2c0-4.7-3.7-8.1-8.4-8.1
	S2013,858.1,2013,862.8z M2013.8,934h15v-56.4h-15V934z M2059,924.9c-5.3,0-8.8-1.9-8.8-7.2s3.9-7,11.7-8.8
	c3.7-0.9,7.8-1.8,10.5-3.3v8.5C2072.3,919.6,2067.6,924.9,2059,924.9z M2074,934h14.4v-0.5c-1.3-1-2-3.5-2-7.8V897
	c0-13.2-6.8-20.8-23.8-20.8c-16.5,0-23.9,8.7-24.3,18.6h13.3c0.4-5.4,3.9-7.9,10.9-7.9c6.3,0,9.5,2.6,9.5,6.7
	c0,4.3-4.3,5.1-13.6,6.4c-12.5,1.8-22.7,5.7-22.7,18.1c0,11.2,8.1,17.3,19.7,17.3c9.7,0,13.8-3.3,16.6-7.6h0.2
	C2072.6,930.3,2073.1,932.9,2074,934z M2110.6,877.6H2096V934h15v-32c0-7.7,4.8-13,11.4-13c6.3,0,9.8,4.3,9.8,10.3V934h15v-36.8
	c0-12.3-7.8-21.1-19.5-21.1c-7.7,0-12.9,3.2-16.7,9.2h-0.3L2110.6,877.6L2110.6,877.6z M2199.2,923.1c-7.7,0-12-6.4-12-17.3
	c0-10.5,4.2-17.7,12.4-17.7c9.6,0,13.1,7.3,13.1,18C2212.7,916.5,2208.1,923.1,2199.2,923.1z M2195.9,935.7c7.9,0,13.5-3.6,16.8-9
	h0.2v7.4h14.4v-78.7h-15v29h-0.3c-3.1-4.7-8-8.4-15.9-8.4c-14.1,0-24.1,12.2-24.1,29.8C2172,924.1,2181.7,935.7,2195.9,935.7z
	 M2257.6,924.9c-5.3,0-8.8-1.9-8.8-7.2s3.8-7,11.7-8.8c3.7-0.9,7.8-1.8,10.4-3.3v8.5C2271,919.6,2266.2,924.9,2257.6,924.9z
	 M2272.6,934h14.4v-0.5c-1.3-1-2-3.5-2-7.8V897c0-13.2-6.8-20.8-23.8-20.8c-16.5,0-23.9,8.7-24.3,18.6h13.3
	c0.4-5.4,3.8-7.9,10.9-7.9c6.3,0,9.5,2.6,9.5,6.7c0,4.3-4.3,5.1-13.6,6.4c-12.5,1.8-22.7,5.7-22.7,18.1c0,11.2,8.1,17.3,19.7,17.3
	c9.7,0,13.8-3.3,16.6-7.6h0.2C2271.2,930.3,2271.7,932.9,2272.6,934z M2290.2,887.5h7.8v33.1c0,10.7,8,13.5,15.3,13.5
	c5.9,0,9.4-0.2,9.4-0.2v-11c0,0-2.5,0.1-4.4,0.1c-3.3,0-5.6-1.4-5.6-5.6v-29.9h9.7v-9.9h-9.7V860H2298v17.6h-7.8V887.5z
	 M2329.1,862.8c0,4.8,3.7,8.2,8.4,8.2c4.6,0,8.4-3.4,8.4-8.2c0-4.7-3.7-8.1-8.4-8.1C2332.9,854.7,2329.1,858.1,2329.1,862.8z
	 M2330,934h15v-56.4h-15V934z M2369.2,877.6h-14.6V934h15v-32c0-7.7,4.8-13,11.4-13c6.3,0,9.8,4.3,9.8,10.3V934h15v-36.8
	c0-12.3-7.8-21.1-19.5-21.1c-7.7,0-12.9,3.2-16.7,9.2h-0.3L2369.2,877.6L2369.2,877.6z M2439.6,918.6c-7.7,0-12.8-5.6-12.8-15.2
	c0-9.5,5.1-15.4,12.6-15.4c9,0,13.4,7,13.4,15.3C2452.9,911.7,2449.1,918.6,2439.6,918.6z M2439.8,953.2c8.4,0,15.6-2,20.3-6.4
	c4.2-3.8,6.7-9.2,6.7-17.2v-52.1h-14.4v5.9h-0.2c-3.4-4.7-8.6-7.5-15.6-7.5c-14.3,0-24.4,10.8-24.4,27.6c0,17,12.3,27,24.9,27
	c7.1,0,11.4-2.9,14.7-6.6h0.3v6.2c0,7.7-4.1,11.8-12.5,11.8c-6.9,0-10.1-2.8-11.3-6.3h-14.9C2415,946.7,2424.4,953.2,2439.8,953.2z
	 M2515.6,924.9c-5.3,0-8.8-1.9-8.8-7.2s3.9-7,11.7-8.8c3.7-0.9,7.8-1.8,10.4-3.3v8.5C2528.9,919.6,2524.1,924.9,2515.6,924.9z
	 M2530.5,934h14.4v-0.5c-1.3-1-2-3.5-2-7.8V897c0-13.2-6.8-20.8-23.8-20.8c-16.5,0-23.9,8.7-24.3,18.6h13.3
	c0.4-5.4,3.9-7.9,10.9-7.9c6.3,0,9.5,2.6,9.5,6.7c0,4.3-4.3,5.1-13.6,6.4c-12.5,1.8-22.7,5.7-22.7,18.1c0,11.2,8.1,17.3,19.7,17.3
	c9.7,0,13.8-3.3,16.6-7.6h0.2C2529.1,930.3,2529.6,932.9,2530.5,934z M2580.7,923.2c-8.9,0-13.6-6.7-13.6-16.9
	c0-10.1,3.7-18.2,13.1-18.2c9.2,0,13,7.5,13,18.2S2588.3,923.2,2580.7,923.2z M2552.5,952.5h15v-24.9h0.2c3.2,4.8,8.4,8,16.3,8
	c14.5,0,24.4-11.6,24.4-29.8c0-17.6-9.6-29.8-24.5-29.8c-7.7,0-13,3.6-16.6,8.6h-0.3v-7h-14.4L2552.5,952.5L2552.5,952.5z
	 M2643.6,923.2c-8.9,0-13.6-6.7-13.6-16.9c0-10.1,3.7-18.2,13.1-18.2c9.2,0,13,7.5,13,18.2C2656,917,2651.2,923.2,2643.6,923.2z
	 M2615.3,952.5h15v-24.9h0.2c3.2,4.8,8.4,8,16.3,8c14.5,0,24.4-11.6,24.4-29.8c0-17.6-9.6-29.8-24.5-29.8c-7.7,0-13,3.6-16.6,8.6
	h-0.3v-7h-14.4L2615.3,952.5L2615.3,952.5z"/>
</svg>
