<svg width="2854" height="1086" viewBox="0 0 2854 1086" fill="none" xmlns="http://www.w3.org/2000/svg">
<rect width="2854" height="1086" fill="black"/>
<path d="M438.6 821.8C544.2 821.8 613 740.2 613 604.2C613 481 544.2 387.4 437.8 387.4C381.8 387.4 346.6 410.6 321 445.8H318.6V237H188.2V809H313V757H314.6C340.2 799.4 384.2 821.8 438.6 821.8ZM401.8 718.6C348.2 718.6 314.6 672.2 314.6 604.2C314.6 537 342.6 486.6 400.2 486.6C453 486.6 481 533 481 603.4C481 674.6 453 718.6 401.8 718.6ZM840.95 821C892.95 821 934.55 807.4 968.95 783.4C1004.95 758.6 1028.95 723.4 1037.75 686.6H910.55C899.35 712.2 876.95 727.4 842.55 727.4C788.95 727.4 758.55 693 750.55 637.8H1044.95C1045.75 554.6 1021.75 483.4 972.95 438.6C937.75 406.6 891.35 387.4 832.95 387.4C708.15 387.4 622.55 481 622.55 603.4C622.55 727.4 705.75 821 840.95 821ZM751.35 560.2C760.15 511.4 785.75 480.2 835.35 480.2C877.75 480.2 908.15 511.4 912.95 560.2H751.35ZM1073.41 809H1205.41V237H1073.41V809ZM1318.3 225C1277.5 225 1246.3 253.8 1246.3 294.6C1246.3 335.4 1277.5 364.2 1318.3 364.2C1359.1 364.2 1390.3 335.4 1390.3 294.6C1390.3 253.8 1359.1 225 1318.3 225ZM1252.7 809H1383.1V399.4H1252.7V809ZM1629.67 821C1681.67 821 1723.27 807.4 1757.67 783.4C1793.67 758.6 1817.67 723.4 1826.47 686.6H1699.27C1688.07 712.2 1665.67 727.4 1631.27 727.4C1577.67 727.4 1547.27 693 1539.27 637.8H1833.67C1834.47 554.6 1810.47 483.4 1761.67 438.6C1726.47 406.6 1680.07 387.4 1621.67 387.4C1496.87 387.4 1411.27 481 1411.27 603.4C1411.27 727.4 1494.47 821 1629.67 821ZM1540.07 560.2C1548.87 511.4 1574.47 480.2 1624.07 480.2C1666.47 480.2 1696.87 511.4 1701.67 560.2H1540.07ZM1957.61 809H2098.41L2240.01 399.4H2109.61L2052.81 584.2C2040.81 625 2030.41 666.6 2030.41 666.6H2028.81C2028.81 666.6 2018.41 625 2006.41 584.2L1950.41 399.4H1816.01L1957.61 809ZM2253.14 809H2383.54V625C2383.54 536.2 2434.74 497 2514.74 508.2H2517.94V396.2C2512.34 393.8 2504.34 393 2492.34 393C2442.74 393 2409.14 414.6 2380.34 463.4H2377.94V399.4H2253.14V809Z" fill="white"/>
<path d="M2605.79 666.6C2562.59 666.6 2531.39 697 2531.39 739.4C2531.39 781.8 2562.59 813 2605.79 813C2648.99 813 2680.99 781.8 2680.99 739.4C2680.99 697 2648.99 666.6 2605.79 666.6Z" fill="#FF0099"/>
<path d="M1300.41 924.87C1295.13 924.87 1291.61 923 1291.61 917.72C1291.61 912.44 1295.46 910.68 1303.27 908.92C1307.01 908.04 1311.08 907.16 1313.72 905.62V914.09C1313.72 919.59 1308.99 924.87 1300.41 924.87ZM1315.37 934H1329.78V933.45C1328.46 932.46 1327.8 929.93 1327.8 925.64V896.93C1327.8 883.73 1320.98 876.14 1304.04 876.14C1287.54 876.14 1280.17 884.83 1279.73 894.73H1293.04C1293.48 889.34 1296.89 886.81 1303.93 886.81C1310.2 886.81 1313.39 889.45 1313.39 893.52C1313.39 897.81 1309.1 898.58 1299.75 899.9C1287.21 901.66 1277.09 905.62 1277.09 918.05C1277.09 929.27 1285.23 935.32 1296.78 935.32C1306.46 935.32 1310.53 932.02 1313.39 927.73H1313.61C1313.94 930.26 1314.49 932.9 1315.37 934ZM1351.94 877.57H1337.31V934H1352.27V901.99C1352.27 894.29 1357.11 889.01 1363.71 889.01C1369.98 889.01 1373.5 893.3 1373.5 899.35V934H1388.46V897.15C1388.46 884.83 1380.65 876.03 1368.99 876.03C1361.29 876.03 1356.12 879.22 1352.27 885.27H1351.94V877.57ZM1416.38 934H1431.34V855.35H1416.38V934ZM1465.83 918.6C1458.13 918.6 1453.07 912.99 1453.07 903.42C1453.07 893.96 1458.13 888.02 1465.72 888.02C1474.74 888.02 1479.14 895.06 1479.14 903.31C1479.14 911.67 1475.29 918.6 1465.83 918.6ZM1466.05 953.25C1474.41 953.25 1481.67 951.27 1486.4 946.87C1490.58 943.02 1493.11 937.63 1493.11 929.71V877.57H1478.7V883.51H1478.48C1475.07 878.78 1469.9 876.03 1462.86 876.03C1448.56 876.03 1438.44 886.81 1438.44 903.64C1438.44 920.69 1450.76 930.59 1463.3 930.59C1470.45 930.59 1474.74 927.73 1478.04 923.99H1478.37V930.15C1478.37 937.85 1474.3 941.92 1465.83 941.92C1458.9 941.92 1455.71 939.17 1454.5 935.65H1439.65C1441.19 946.65 1450.65 953.25 1466.05 953.25ZM1534.2 935.65C1548.39 935.65 1558.07 924.1 1558.07 905.84C1558.07 888.24 1547.95 876.03 1533.76 876.03C1525.95 876.03 1521.11 879.66 1518.03 884.39H1517.7V855.35H1502.74V934H1517.15V926.96H1517.37C1520.67 932.24 1526.28 935.65 1534.2 935.65ZM1530.9 923.11C1522.54 923.11 1517.37 916.51 1517.37 906.17C1517.37 895.72 1520.89 888.13 1530.35 888.13C1538.71 888.13 1542.89 895.39 1542.89 905.84C1542.89 916.73 1538.6 923.11 1530.9 923.11ZM1560.13 887.47H1567.94V920.58C1567.94 931.25 1575.97 934.11 1583.23 934.11C1589.17 934.11 1592.58 933.89 1592.58 933.89V922.89C1592.58 922.89 1590.05 923 1588.18 923C1584.88 923 1582.57 921.57 1582.57 917.39V887.47H1592.25V877.57H1582.57V859.97H1567.94V877.57H1560.13V887.47ZM1637.59 952.48H1652.55V877.57H1638.14V884.61H1637.81C1634.4 879.22 1629.67 876.03 1621.97 876.03C1607.01 876.03 1597.55 888.24 1597.55 905.84C1597.55 924.1 1608.33 935.65 1621.97 935.65C1629.56 935.65 1634.62 932.13 1637.37 927.62H1637.59V952.48ZM1625.16 922.89C1617.24 922.89 1612.73 916.95 1612.73 906.28C1612.73 895.61 1615.92 887.91 1625.27 887.91C1634.29 887.91 1637.92 896.05 1637.92 906.28C1637.92 916.51 1633.08 922.89 1625.16 922.89ZM1661.27 903.42H1682.94V925.75H1694.38V903.42H1716.16V892.42H1694.38V870.09H1682.94V892.42H1661.27V903.42ZM1769.55 935.65C1784.62 935.65 1793.97 926.08 1794.96 914.09H1780.55C1779.56 920.47 1775.27 923.66 1769.22 923.66C1760.09 923.66 1755.8 916.51 1755.8 905.84C1755.8 894.95 1760.42 888.02 1769.44 888.02C1774.94 888.02 1778.79 891.76 1779.78 896.71H1794.41C1792.43 884.5 1783.41 876.03 1768.78 876.03C1751.62 876.03 1740.62 889.01 1740.62 905.84C1740.62 922.67 1751.73 935.65 1769.55 935.65ZM1816.44 855.35H1801.48V934H1816.44V901.99C1816.44 894.29 1821.28 889.01 1827.88 889.01C1834.15 889.01 1837.67 893.3 1837.67 899.35V934H1852.63V897.15C1852.63 884.83 1844.82 876.03 1833.16 876.03C1825.46 876.03 1820.84 879 1816.77 884.94H1816.44V855.35ZM1876.26 877.57H1861.85V934H1876.81V906.5C1876.81 894.62 1883.85 889.45 1893.64 890.44H1893.97V877.35C1893.09 877.02 1892.1 876.91 1890.45 876.91C1883.85 876.91 1880 880.21 1876.59 886.59H1876.26V877.57ZM1899.54 862.83C1899.54 867.67 1903.28 871.08 1907.9 871.08C1912.52 871.08 1916.26 867.67 1916.26 862.83C1916.26 858.1 1912.52 854.69 1907.9 854.69C1903.28 854.69 1899.54 858.1 1899.54 862.83ZM1900.42 934H1915.38V877.57H1900.42V934ZM1947.9 935.65C1961.98 935.65 1971.66 928.83 1971.66 917.5C1971.66 904.3 1961.21 901.66 1951.75 899.68C1943.72 898.03 1936.24 897.59 1936.24 892.75C1936.24 888.68 1940.09 886.48 1945.92 886.48C1952.3 886.48 1956.15 888.68 1956.81 894.73H1970.34C1969.24 883.4 1960.99 876.03 1946.14 876.03C1933.27 876.03 1923.15 881.86 1923.15 894.07C1923.15 906.39 1933.05 909.14 1943.17 911.12C1950.87 912.66 1958.02 913.21 1958.02 918.6C1958.02 922.56 1954.28 925.09 1947.68 925.09C1940.97 925.09 1936.35 922.23 1935.36 915.74H1921.5C1922.38 927.73 1931.51 935.65 1947.9 935.65ZM1974.03 887.47H1981.84V920.58C1981.84 931.25 1989.87 934.11 1997.13 934.11C2003.07 934.11 2006.48 933.89 2006.48 933.89V922.89C2006.48 922.89 2003.95 923 2002.08 923C1998.78 923 1996.47 921.57 1996.47 917.39V887.47H2006.15V877.57H1996.47V859.97H1981.84V877.57H1974.03V887.47ZM2012.97 862.83C2012.97 867.67 2016.71 871.08 2021.33 871.08C2025.95 871.08 2029.69 867.67 2029.69 862.83C2029.69 858.1 2025.95 854.69 2021.33 854.69C2016.71 854.69 2012.97 858.1 2012.97 862.83ZM2013.85 934H2028.81V877.57H2013.85V934ZM2059.02 924.87C2053.74 924.87 2050.22 923 2050.22 917.72C2050.22 912.44 2054.07 910.68 2061.88 908.92C2065.62 908.04 2069.69 907.16 2072.33 905.62V914.09C2072.33 919.59 2067.6 924.87 2059.02 924.87ZM2073.98 934H2088.39V933.45C2087.07 932.46 2086.41 929.93 2086.41 925.64V896.93C2086.41 883.73 2079.59 876.14 2062.65 876.14C2046.15 876.14 2038.78 884.83 2038.34 894.73H2051.65C2052.09 889.34 2055.5 886.81 2062.54 886.81C2068.81 886.81 2072 889.45 2072 893.52C2072 897.81 2067.71 898.58 2058.36 899.9C2045.82 901.66 2035.7 905.62 2035.7 918.05C2035.7 929.27 2043.84 935.32 2055.39 935.32C2065.07 935.32 2069.14 932.02 2072 927.73H2072.22C2072.55 930.26 2073.1 932.9 2073.98 934ZM2110.55 877.57H2095.92V934H2110.88V901.99C2110.88 894.29 2115.72 889.01 2122.32 889.01C2128.59 889.01 2132.11 893.3 2132.11 899.35V934H2147.07V897.15C2147.07 884.83 2139.26 876.03 2127.6 876.03C2119.9 876.03 2114.73 879.22 2110.88 885.27H2110.55V877.57ZM2199.19 923.11C2191.49 923.11 2187.2 916.73 2187.2 905.84C2187.2 895.39 2191.38 888.13 2199.63 888.13C2209.2 888.13 2212.72 895.39 2212.72 906.17C2212.72 916.51 2208.1 923.11 2199.19 923.11ZM2195.89 935.65C2203.81 935.65 2209.42 932.02 2212.72 926.63H2212.94V934H2227.35V855.35H2212.39V884.39H2212.06C2208.98 879.66 2204.03 876.03 2196.11 876.03C2182.03 876.03 2172.02 888.24 2172.02 905.84C2172.02 924.1 2181.7 935.65 2195.89 935.65ZM2257.65 924.87C2252.37 924.87 2248.85 923 2248.85 917.72C2248.85 912.44 2252.7 910.68 2260.51 908.92C2264.25 908.04 2268.32 907.16 2270.96 905.62V914.09C2270.96 919.59 2266.23 924.87 2257.65 924.87ZM2272.61 934H2287.02V933.45C2285.7 932.46 2285.04 929.93 2285.04 925.64V896.93C2285.04 883.73 2278.22 876.14 2261.28 876.14C2244.78 876.14 2237.41 884.83 2236.97 894.73H2250.28C2250.72 889.34 2254.13 886.81 2261.17 886.81C2267.44 886.81 2270.63 889.45 2270.63 893.52C2270.63 897.81 2266.34 898.58 2256.99 899.9C2244.45 901.66 2234.33 905.62 2234.33 918.05C2234.33 929.27 2242.47 935.32 2254.02 935.32C2263.7 935.32 2267.77 932.02 2270.63 927.73H2270.85C2271.18 930.26 2271.73 932.9 2272.61 934ZM2290.17 887.47H2297.98V920.58C2297.98 931.25 2306.01 934.11 2313.27 934.11C2319.21 934.11 2322.62 933.89 2322.62 933.89V922.89C2322.62 922.89 2320.09 923 2318.22 923C2314.92 923 2312.61 921.57 2312.61 917.39V887.47H2322.29V877.57H2312.61V859.97H2297.98V877.57H2290.17V887.47ZM2329.12 862.83C2329.12 867.67 2332.86 871.08 2337.48 871.08C2342.1 871.08 2345.84 867.67 2345.84 862.83C2345.84 858.1 2342.1 854.69 2337.48 854.69C2332.86 854.69 2329.12 858.1 2329.12 862.83ZM2330 934H2344.96V877.57H2330V934ZM2369.23 877.57H2354.6V934H2369.56V901.99C2369.56 894.29 2374.4 889.01 2381 889.01C2387.27 889.01 2390.79 893.3 2390.79 899.35V934H2405.75V897.15C2405.75 884.83 2397.94 876.03 2386.28 876.03C2378.58 876.03 2373.41 879.22 2369.56 885.27H2369.23V877.57ZM2439.61 918.6C2431.91 918.6 2426.85 912.99 2426.85 903.42C2426.85 893.96 2431.91 888.02 2439.5 888.02C2448.52 888.02 2452.92 895.06 2452.92 903.31C2452.92 911.67 2449.07 918.6 2439.61 918.6ZM2439.83 953.25C2448.19 953.25 2455.45 951.27 2460.18 946.87C2464.36 943.02 2466.89 937.63 2466.89 929.71V877.57H2452.48V883.51H2452.26C2448.85 878.78 2443.68 876.03 2436.64 876.03C2422.34 876.03 2412.22 886.81 2412.22 903.64C2412.22 920.69 2424.54 930.59 2437.08 930.59C2444.23 930.59 2448.52 927.73 2451.82 923.99H2452.15V930.15C2452.15 937.85 2448.08 941.92 2439.61 941.92C2432.68 941.92 2429.49 939.17 2428.28 935.65H2413.43C2414.97 946.65 2424.43 953.25 2439.83 953.25ZM2515.57 924.87C2510.29 924.87 2506.77 923 2506.77 917.72C2506.77 912.44 2510.62 910.68 2518.43 908.92C2522.17 908.04 2526.24 907.16 2528.88 905.62V914.09C2528.88 919.59 2524.15 924.87 2515.57 924.87ZM2530.53 934H2544.94V933.45C2543.62 932.46 2542.96 929.93 2542.96 925.64V896.93C2542.96 883.73 2536.14 876.14 2519.2 876.14C2502.7 876.14 2495.33 884.83 2494.89 894.73H2508.2C2508.64 889.34 2512.05 886.81 2519.09 886.81C2525.36 886.81 2528.55 889.45 2528.55 893.52C2528.55 897.81 2524.26 898.58 2514.91 899.9C2502.37 901.66 2492.25 905.62 2492.25 918.05C2492.25 929.27 2500.39 935.32 2511.94 935.32C2521.62 935.32 2525.69 932.02 2528.55 927.73H2528.77C2529.1 930.26 2529.65 932.9 2530.53 934ZM2580.74 923.22C2571.83 923.22 2567.1 916.51 2567.1 906.28C2567.1 896.16 2570.84 888.13 2580.19 888.13C2589.43 888.13 2593.17 895.61 2593.17 906.28C2593.17 916.95 2588.33 923.22 2580.74 923.22ZM2552.47 952.48H2567.43V927.62H2567.65C2570.84 932.46 2576.01 935.65 2583.93 935.65C2598.45 935.65 2608.35 924.1 2608.35 905.84C2608.35 888.24 2598.78 876.03 2583.82 876.03C2576.12 876.03 2570.84 879.66 2567.21 884.61H2566.88V877.57H2552.47V952.48ZM2643.58 923.22C2634.67 923.22 2629.94 916.51 2629.94 906.28C2629.94 896.16 2633.68 888.13 2643.03 888.13C2652.27 888.13 2656.01 895.61 2656.01 906.28C2656.01 916.95 2651.17 923.22 2643.58 923.22ZM2615.31 952.48H2630.27V927.62H2630.49C2633.68 932.46 2638.85 935.65 2646.77 935.65C2661.29 935.65 2671.19 924.1 2671.19 905.84C2671.19 888.24 2661.62 876.03 2646.66 876.03C2638.96 876.03 2633.68 879.66 2630.05 884.61H2629.72V877.57H2615.31V952.48Z" fill="#A7A7A7"/>
<path d="M438.6 821.8C544.2 821.8 613 740.2 613 604.2C613 481 544.2 387.4 437.8 387.4C381.8 387.4 346.6 410.6 321 445.8H318.6V237H188.2V809H313V757H314.6C340.2 799.4 384.2 821.8 438.6 821.8ZM401.8 718.6C348.2 718.6 314.6 672.2 314.6 604.2C314.6 537 342.6 486.6 400.2 486.6C453 486.6 481 533 481 603.4C481 674.6 453 718.6 401.8 718.6ZM840.95 821C892.95 821 934.55 807.4 968.95 783.4C1004.95 758.6 1028.95 723.4 1037.75 686.6H910.55C899.35 712.2 876.95 727.4 842.55 727.4C788.95 727.4 758.55 693 750.55 637.8H1044.95C1045.75 554.6 1021.75 483.4 972.95 438.6C937.75 406.6 891.35 387.4 832.95 387.4C708.15 387.4 622.55 481 622.55 603.4C622.55 727.4 705.75 821 840.95 821ZM751.35 560.2C760.15 511.4 785.75 480.2 835.35 480.2C877.75 480.2 908.15 511.4 912.95 560.2H751.35ZM1073.41 809H1205.41V237H1073.41V809ZM1318.3 225C1277.5 225 1246.3 253.8 1246.3 294.6C1246.3 335.4 1277.5 364.2 1318.3 364.2C1359.1 364.2 1390.3 335.4 1390.3 294.6C1390.3 253.8 1359.1 225 1318.3 225ZM1252.7 809H1383.1V399.4H1252.7V809ZM1629.67 821C1681.67 821 1723.27 807.4 1757.67 783.4C1793.67 758.6 1817.67 723.4 1826.47 686.6H1699.27C1688.07 712.2 1665.67 727.4 1631.27 727.4C1577.67 727.4 1547.27 693 1539.27 637.8H1833.67C1834.47 554.6 1810.47 483.4 1761.67 438.6C1726.47 406.6 1680.07 387.4 1621.67 387.4C1496.87 387.4 1411.27 481 1411.27 603.4C1411.27 727.4 1494.47 821 1629.67 821ZM1540.07 560.2C1548.87 511.4 1574.47 480.2 1624.07 480.2C1666.47 480.2 1696.87 511.4 1701.67 560.2H1540.07ZM1957.61 809H2098.41L2240.01 399.4H2109.61L2052.81 584.2C2040.81 625 2030.41 666.6 2030.41 666.6H2028.81C2028.81 666.6 2018.41 625 2006.41 584.2L1950.41 399.4H1816.01L1957.61 809ZM2253.14 809H2383.54V625C2383.54 536.2 2434.74 497 2514.74 508.2H2517.94V396.2C2512.34 393.8 2504.34 393 2492.34 393C2442.74 393 2409.14 414.6 2380.34 463.4H2377.94V399.4H2253.14V809Z" fill="white"/>
<path d="M2605.79 666.6C2562.59 666.6 2531.39 697 2531.39 739.4C2531.39 781.8 2562.59 813 2605.79 813C2648.99 813 2680.99 781.8 2680.99 739.4C2680.99 697 2648.99 666.6 2605.79 666.6Z" fill="#FF0099"/>
<path d="M438.6 821.8C544.2 821.8 613 740.2 613 604.2C613 481 544.2 387.4 437.8 387.4C381.8 387.4 346.6 410.6 321 445.8H318.6V237H188.2V809H313V757H314.6C340.2 799.4 384.2 821.8 438.6 821.8ZM401.8 718.6C348.2 718.6 314.6 672.2 314.6 604.2C314.6 537 342.6 486.6 400.2 486.6C453 486.6 481 533 481 603.4C481 674.6 453 718.6 401.8 718.6ZM840.95 821C892.95 821 934.55 807.4 968.95 783.4C1004.95 758.6 1028.95 723.4 1037.75 686.6H910.55C899.35 712.2 876.95 727.4 842.55 727.4C788.95 727.4 758.55 693 750.55 637.8H1044.95C1045.75 554.6 1021.75 483.4 972.95 438.6C937.75 406.6 891.35 387.4 832.95 387.4C708.15 387.4 622.55 481 622.55 603.4C622.55 727.4 705.75 821 840.95 821ZM751.35 560.2C760.15 511.4 785.75 480.2 835.35 480.2C877.75 480.2 908.15 511.4 912.95 560.2H751.35ZM1073.41 809H1205.41V237H1073.41V809ZM1318.3 225C1277.5 225 1246.3 253.8 1246.3 294.6C1246.3 335.4 1277.5 364.2 1318.3 364.2C1359.1 364.2 1390.3 335.4 1390.3 294.6C1390.3 253.8 1359.1 225 1318.3 225ZM1252.7 809H1383.1V399.4H1252.7V809ZM1629.67 821C1681.67 821 1723.27 807.4 1757.67 783.4C1793.67 758.6 1817.67 723.4 1826.47 686.6H1699.27C1688.07 712.2 1665.67 727.4 1631.27 727.4C1577.67 727.4 1547.27 693 1539.27 637.8H1833.67C1834.47 554.6 1810.47 483.4 1761.67 438.6C1726.47 406.6 1680.07 387.4 1621.67 387.4C1496.87 387.4 1411.27 481 1411.27 603.4C1411.27 727.4 1494.47 821 1629.67 821ZM1540.07 560.2C1548.87 511.4 1574.47 480.2 1624.07 480.2C1666.47 480.2 1696.87 511.4 1701.67 560.2H1540.07ZM1957.61 809H2098.41L2240.01 399.4H2109.61L2052.81 584.2C2040.81 625 2030.41 666.6 2030.41 666.6H2028.81C2028.81 666.6 2018.41 625 2006.41 584.2L1950.41 399.4H1816.01L1957.61 809ZM2253.14 809H2383.54V625C2383.54 536.2 2434.74 497 2514.74 508.2H2517.94V396.2C2512.34 393.8 2504.34 393 2492.34 393C2442.74 393 2409.14 414.6 2380.34 463.4H2377.94V399.4H2253.14V809Z" fill="white"/>
<path d="M2605.79 666.6C2562.59 666.6 2531.39 697 2531.39 739.4C2531.39 781.8 2562.59 813 2605.79 813C2648.99 813 2680.99 781.8 2680.99 739.4C2680.99 697 2648.99 666.6 2605.79 666.6Z" fill="#FF0099"/>
<path d="M1300.41 924.87C1295.13 924.87 1291.61 923 1291.61 917.72C1291.61 912.44 1295.46 910.68 1303.27 908.92C1307.01 908.04 1311.08 907.16 1313.72 905.62V914.09C1313.72 919.59 1308.99 924.87 1300.41 924.87ZM1315.37 934H1329.78V933.45C1328.46 932.46 1327.8 929.93 1327.8 925.64V896.93C1327.8 883.73 1320.98 876.14 1304.04 876.14C1287.54 876.14 1280.17 884.83 1279.73 894.73H1293.04C1293.48 889.34 1296.89 886.81 1303.93 886.81C1310.2 886.81 1313.39 889.45 1313.39 893.52C1313.39 897.81 1309.1 898.58 1299.75 899.9C1287.21 901.66 1277.09 905.62 1277.09 918.05C1277.09 929.27 1285.23 935.32 1296.78 935.32C1306.46 935.32 1310.53 932.02 1313.39 927.73H1313.61C1313.94 930.26 1314.49 932.9 1315.37 934ZM1351.94 877.57H1337.31V934H1352.27V901.99C1352.27 894.29 1357.11 889.01 1363.71 889.01C1369.98 889.01 1373.5 893.3 1373.5 899.35V934H1388.46V897.15C1388.46 884.83 1380.65 876.03 1368.99 876.03C1361.29 876.03 1356.12 879.22 1352.27 885.27H1351.94V877.57ZM1416.38 934H1431.34V855.35H1416.38V934ZM1465.83 918.6C1458.13 918.6 1453.07 912.99 1453.07 903.42C1453.07 893.96 1458.13 888.02 1465.72 888.02C1474.74 888.02 1479.14 895.06 1479.14 903.31C1479.14 911.67 1475.29 918.6 1465.83 918.6ZM1466.05 953.25C1474.41 953.25 1481.67 951.27 1486.4 946.87C1490.58 943.02 1493.11 937.63 1493.11 929.71V877.57H1478.7V883.51H1478.48C1475.07 878.78 1469.9 876.03 1462.86 876.03C1448.56 876.03 1438.44 886.81 1438.44 903.64C1438.44 920.69 1450.76 930.59 1463.3 930.59C1470.45 930.59 1474.74 927.73 1478.04 923.99H1478.37V930.15C1478.37 937.85 1474.3 941.92 1465.83 941.92C1458.9 941.92 1455.71 939.17 1454.5 935.65H1439.65C1441.19 946.65 1450.65 953.25 1466.05 953.25ZM1534.2 935.65C1548.39 935.65 1558.07 924.1 1558.07 905.84C1558.07 888.24 1547.95 876.03 1533.76 876.03C1525.95 876.03 1521.11 879.66 1518.03 884.39H1517.7V855.35H1502.74V934H1517.15V926.96H1517.37C1520.67 932.24 1526.28 935.65 1534.2 935.65ZM1530.9 923.11C1522.54 923.11 1517.37 916.51 1517.37 906.17C1517.37 895.72 1520.89 888.13 1530.35 888.13C1538.71 888.13 1542.89 895.39 1542.89 905.84C1542.89 916.73 1538.6 923.11 1530.9 923.11ZM1560.13 887.47H1567.94V920.58C1567.94 931.25 1575.97 934.11 1583.23 934.11C1589.17 934.11 1592.58 933.89 1592.58 933.89V922.89C1592.58 922.89 1590.05 923 1588.18 923C1584.88 923 1582.57 921.57 1582.57 917.39V887.47H1592.25V877.57H1582.57V859.97H1567.94V877.57H1560.13V887.47ZM1637.59 952.48H1652.55V877.57H1638.14V884.61H1637.81C1634.4 879.22 1629.67 876.03 1621.97 876.03C1607.01 876.03 1597.55 888.24 1597.55 905.84C1597.55 924.1 1608.33 935.65 1621.97 935.65C1629.56 935.65 1634.62 932.13 1637.37 927.62H1637.59V952.48ZM1625.16 922.89C1617.24 922.89 1612.73 916.95 1612.73 906.28C1612.73 895.61 1615.92 887.91 1625.27 887.91C1634.29 887.91 1637.92 896.05 1637.92 906.28C1637.92 916.51 1633.08 922.89 1625.16 922.89ZM1661.27 903.42H1682.94V925.75H1694.38V903.42H1716.16V892.42H1694.38V870.09H1682.94V892.42H1661.27V903.42ZM1769.55 935.65C1784.62 935.65 1793.97 926.08 1794.96 914.09H1780.55C1779.56 920.47 1775.27 923.66 1769.22 923.66C1760.09 923.66 1755.8 916.51 1755.8 905.84C1755.8 894.95 1760.42 888.02 1769.44 888.02C1774.94 888.02 1778.79 891.76 1779.78 896.71H1794.41C1792.43 884.5 1783.41 876.03 1768.78 876.03C1751.62 876.03 1740.62 889.01 1740.62 905.84C1740.62 922.67 1751.73 935.65 1769.55 935.65ZM1816.44 855.35H1801.48V934H1816.44V901.99C1816.44 894.29 1821.28 889.01 1827.88 889.01C1834.15 889.01 1837.67 893.3 1837.67 899.35V934H1852.63V897.15C1852.63 884.83 1844.82 876.03 1833.16 876.03C1825.46 876.03 1820.84 879 1816.77 884.94H1816.44V855.35ZM1876.26 877.57H1861.85V934H1876.81V906.5C1876.81 894.62 1883.85 889.45 1893.64 890.44H1893.97V877.35C1893.09 877.02 1892.1 876.91 1890.45 876.91C1883.85 876.91 1880 880.21 1876.59 886.59H1876.26V877.57ZM1899.54 862.83C1899.54 867.67 1903.28 871.08 1907.9 871.08C1912.52 871.08 1916.26 867.67 1916.26 862.83C1916.26 858.1 1912.52 854.69 1907.9 854.69C1903.28 854.69 1899.54 858.1 1899.54 862.83ZM1900.42 934H1915.38V877.57H1900.42V934ZM1947.9 935.65C1961.98 935.65 1971.66 928.83 1971.66 917.5C1971.66 904.3 1961.21 901.66 1951.75 899.68C1943.72 898.03 1936.24 897.59 1936.24 892.75C1936.24 888.68 1940.09 886.48 1945.92 886.48C1952.3 886.48 1956.15 888.68 1956.81 894.73H1970.34C1969.24 883.4 1960.99 876.03 1946.14 876.03C1933.27 876.03 1923.15 881.86 1923.15 894.07C1923.15 906.39 1933.05 909.14 1943.17 911.12C1950.87 912.66 1958.02 913.21 1958.02 918.6C1958.02 922.56 1954.28 925.09 1947.68 925.09C1940.97 925.09 1936.35 922.23 1935.36 915.74H1921.5C1922.38 927.73 1931.51 935.65 1947.9 935.65ZM1974.03 887.47H1981.84V920.58C1981.84 931.25 1989.87 934.11 1997.13 934.11C2003.07 934.11 2006.48 933.89 2006.48 933.89V922.89C2006.48 922.89 2003.95 923 2002.08 923C1998.78 923 1996.47 921.57 1996.47 917.39V887.47H2006.15V877.57H1996.47V859.97H1981.84V877.57H1974.03V887.47ZM2012.97 862.83C2012.97 867.67 2016.71 871.08 2021.33 871.08C2025.95 871.08 2029.69 867.67 2029.69 862.83C2029.69 858.1 2025.95 854.69 2021.33 854.69C2016.71 854.69 2012.97 858.1 2012.97 862.83ZM2013.85 934H2028.81V877.57H2013.85V934ZM2059.02 924.87C2053.74 924.87 2050.22 923 2050.22 917.72C2050.22 912.44 2054.07 910.68 2061.88 908.92C2065.62 908.04 2069.69 907.16 2072.33 905.62V914.09C2072.33 919.59 2067.6 924.87 2059.02 924.87ZM2073.98 934H2088.39V933.45C2087.07 932.46 2086.41 929.93 2086.41 925.64V896.93C2086.41 883.73 2079.59 876.14 2062.65 876.14C2046.15 876.14 2038.78 884.83 2038.34 894.73H2051.65C2052.09 889.34 2055.5 886.81 2062.54 886.81C2068.81 886.81 2072 889.45 2072 893.52C2072 897.81 2067.71 898.58 2058.36 899.9C2045.82 901.66 2035.7 905.62 2035.7 918.05C2035.7 929.27 2043.84 935.32 2055.39 935.32C2065.07 935.32 2069.14 932.02 2072 927.73H2072.22C2072.55 930.26 2073.1 932.9 2073.98 934ZM2110.55 877.57H2095.92V934H2110.88V901.99C2110.88 894.29 2115.72 889.01 2122.32 889.01C2128.59 889.01 2132.11 893.3 2132.11 899.35V934H2147.07V897.15C2147.07 884.83 2139.26 876.03 2127.6 876.03C2119.9 876.03 2114.73 879.22 2110.88 885.27H2110.55V877.57ZM2199.19 923.11C2191.49 923.11 2187.2 916.73 2187.2 905.84C2187.2 895.39 2191.38 888.13 2199.63 888.13C2209.2 888.13 2212.72 895.39 2212.72 906.17C2212.72 916.51 2208.1 923.11 2199.19 923.11ZM2195.89 935.65C2203.81 935.65 2209.42 932.02 2212.72 926.63H2212.94V934H2227.35V855.35H2212.39V884.39H2212.06C2208.98 879.66 2204.03 876.03 2196.11 876.03C2182.03 876.03 2172.02 888.24 2172.02 905.84C2172.02 924.1 2181.7 935.65 2195.89 935.65ZM2257.65 924.87C2252.37 924.87 2248.85 923 2248.85 917.72C2248.85 912.44 2252.7 910.68 2260.51 908.92C2264.25 908.04 2268.32 907.16 2270.96 905.62V914.09C2270.96 919.59 2266.23 924.87 2257.65 924.87ZM2272.61 934H2287.02V933.45C2285.7 932.46 2285.04 929.93 2285.04 925.64V896.93C2285.04 883.73 2278.22 876.14 2261.28 876.14C2244.78 876.14 2237.41 884.83 2236.97 894.73H2250.28C2250.72 889.34 2254.13 886.81 2261.17 886.81C2267.44 886.81 2270.63 889.45 2270.63 893.52C2270.63 897.81 2266.34 898.58 2256.99 899.9C2244.45 901.66 2234.33 905.62 2234.33 918.05C2234.33 929.27 2242.47 935.32 2254.02 935.32C2263.7 935.32 2267.77 932.02 2270.63 927.73H2270.85C2271.18 930.26 2271.73 932.9 2272.61 934ZM2290.17 887.47H2297.98V920.58C2297.98 931.25 2306.01 934.11 2313.27 934.11C2319.21 934.11 2322.62 933.89 2322.62 933.89V922.89C2322.62 922.89 2320.09 923 2318.22 923C2314.92 923 2312.61 921.57 2312.61 917.39V887.47H2322.29V877.57H2312.61V859.97H2297.98V877.57H2290.17V887.47ZM2329.12 862.83C2329.12 867.67 2332.86 871.08 2337.48 871.08C2342.1 871.08 2345.84 867.67 2345.84 862.83C2345.84 858.1 2342.1 854.69 2337.48 854.69C2332.86 854.69 2329.12 858.1 2329.12 862.83ZM2330 934H2344.96V877.57H2330V934ZM2369.23 877.57H2354.6V934H2369.56V901.99C2369.56 894.29 2374.4 889.01 2381 889.01C2387.27 889.01 2390.79 893.3 2390.79 899.35V934H2405.75V897.15C2405.75 884.83 2397.94 876.03 2386.28 876.03C2378.58 876.03 2373.41 879.22 2369.56 885.27H2369.23V877.57ZM2439.61 918.6C2431.91 918.6 2426.85 912.99 2426.85 903.42C2426.85 893.96 2431.91 888.02 2439.5 888.02C2448.52 888.02 2452.92 895.06 2452.92 903.31C2452.92 911.67 2449.07 918.6 2439.61 918.6ZM2439.83 953.25C2448.19 953.25 2455.45 951.27 2460.18 946.87C2464.36 943.02 2466.89 937.63 2466.89 929.71V877.57H2452.48V883.51H2452.26C2448.85 878.78 2443.68 876.03 2436.64 876.03C2422.34 876.03 2412.22 886.81 2412.22 903.64C2412.22 920.69 2424.54 930.59 2437.08 930.59C2444.23 930.59 2448.52 927.73 2451.82 923.99H2452.15V930.15C2452.15 937.85 2448.08 941.92 2439.61 941.92C2432.68 941.92 2429.49 939.17 2428.28 935.65H2413.43C2414.97 946.65 2424.43 953.25 2439.83 953.25ZM2515.57 924.87C2510.29 924.87 2506.77 923 2506.77 917.72C2506.77 912.44 2510.62 910.68 2518.43 908.92C2522.17 908.04 2526.24 907.16 2528.88 905.62V914.09C2528.88 919.59 2524.15 924.87 2515.57 924.87ZM2530.53 934H2544.94V933.45C2543.62 932.46 2542.96 929.93 2542.96 925.64V896.93C2542.96 883.73 2536.14 876.14 2519.2 876.14C2502.7 876.14 2495.33 884.83 2494.89 894.73H2508.2C2508.64 889.34 2512.05 886.81 2519.09 886.81C2525.36 886.81 2528.55 889.45 2528.55 893.52C2528.55 897.81 2524.26 898.58 2514.91 899.9C2502.37 901.66 2492.25 905.62 2492.25 918.05C2492.25 929.27 2500.39 935.32 2511.94 935.32C2521.62 935.32 2525.69 932.02 2528.55 927.73H2528.77C2529.1 930.26 2529.65 932.9 2530.53 934ZM2580.74 923.22C2571.83 923.22 2567.1 916.51 2567.1 906.28C2567.1 896.16 2570.84 888.13 2580.19 888.13C2589.43 888.13 2593.17 895.61 2593.17 906.28C2593.17 916.95 2588.33 923.22 2580.74 923.22ZM2552.47 952.48H2567.43V927.62H2567.65C2570.84 932.46 2576.01 935.65 2583.93 935.65C2598.45 935.65 2608.35 924.1 2608.35 905.84C2608.35 888.24 2598.78 876.03 2583.82 876.03C2576.12 876.03 2570.84 879.66 2567.21 884.61H2566.88V877.57H2552.47V952.48ZM2643.58 923.22C2634.67 923.22 2629.94 916.51 2629.94 906.28C2629.94 896.16 2633.68 888.13 2643.03 888.13C2652.27 888.13 2656.01 895.61 2656.01 906.28C2656.01 916.95 2651.17 923.22 2643.58 923.22ZM2615.31 952.48H2630.27V927.62H2630.49C2633.68 932.46 2638.85 935.65 2646.77 935.65C2661.29 935.65 2671.19 924.1 2671.19 905.84C2671.19 888.24 2661.62 876.03 2646.66 876.03C2638.96 876.03 2633.68 879.66 2630.05 884.61H2629.72V877.57H2615.31V952.48Z" fill="#A7A7A7"/>
<path d="M1300.41 924.87C1295.13 924.87 1291.61 923 1291.61 917.72C1291.61 912.44 1295.46 910.68 1303.27 908.92C1307.01 908.04 1311.08 907.16 1313.72 905.62V914.09C1313.72 919.59 1308.99 924.87 1300.41 924.87ZM1315.37 934H1329.78V933.45C1328.46 932.46 1327.8 929.93 1327.8 925.64V896.93C1327.8 883.73 1320.98 876.14 1304.04 876.14C1287.54 876.14 1280.17 884.83 1279.73 894.73H1293.04C1293.48 889.34 1296.89 886.81 1303.93 886.81C1310.2 886.81 1313.39 889.45 1313.39 893.52C1313.39 897.81 1309.1 898.58 1299.75 899.9C1287.21 901.66 1277.09 905.62 1277.09 918.05C1277.09 929.27 1285.23 935.32 1296.78 935.32C1306.46 935.32 1310.53 932.02 1313.39 927.73H1313.61C1313.94 930.26 1314.49 932.9 1315.37 934ZM1351.94 877.57H1337.31V934H1352.27V901.99C1352.27 894.29 1357.11 889.01 1363.71 889.01C1369.98 889.01 1373.5 893.3 1373.5 899.35V934H1388.46V897.15C1388.46 884.83 1380.65 876.03 1368.99 876.03C1361.29 876.03 1356.12 879.22 1352.27 885.27H1351.94V877.57ZM1416.38 934H1431.34V855.35H1416.38V934ZM1465.83 918.6C1458.13 918.6 1453.07 912.99 1453.07 903.42C1453.07 893.96 1458.13 888.02 1465.72 888.02C1474.74 888.02 1479.14 895.06 1479.14 903.31C1479.14 911.67 1475.29 918.6 1465.83 918.6ZM1466.05 953.25C1474.41 953.25 1481.67 951.27 1486.4 946.87C1490.58 943.02 1493.11 937.63 1493.11 929.71V877.57H1478.7V883.51H1478.48C1475.07 878.78 1469.9 876.03 1462.86 876.03C1448.56 876.03 1438.44 886.81 1438.44 903.64C1438.44 920.69 1450.76 930.59 1463.3 930.59C1470.45 930.59 1474.74 927.73 1478.04 923.99H1478.37V930.15C1478.37 937.85 1474.3 941.92 1465.83 941.92C1458.9 941.92 1455.71 939.17 1454.5 935.65H1439.65C1441.19 946.65 1450.65 953.25 1466.05 953.25ZM1534.2 935.65C1548.39 935.65 1558.07 924.1 1558.07 905.84C1558.07 888.24 1547.95 876.03 1533.76 876.03C1525.95 876.03 1521.11 879.66 1518.03 884.39H1517.7V855.35H1502.74V934H1517.15V926.96H1517.37C1520.67 932.24 1526.28 935.65 1534.2 935.65ZM1530.9 923.11C1522.54 923.11 1517.37 916.51 1517.37 906.17C1517.37 895.72 1520.89 888.13 1530.35 888.13C1538.71 888.13 1542.89 895.39 1542.89 905.84C1542.89 916.73 1538.6 923.11 1530.9 923.11ZM1560.13 887.47H1567.94V920.58C1567.94 931.25 1575.97 934.11 1583.23 934.11C1589.17 934.11 1592.58 933.89 1592.58 933.89V922.89C1592.58 922.89 1590.05 923 1588.18 923C1584.88 923 1582.57 921.57 1582.57 917.39V887.47H1592.25V877.57H1582.57V859.97H1567.94V877.57H1560.13V887.47ZM1637.59 952.48H1652.55V877.57H1638.14V884.61H1637.81C1634.4 879.22 1629.67 876.03 1621.97 876.03C1607.01 876.03 1597.55 888.24 1597.55 905.84C1597.55 924.1 1608.33 935.65 1621.97 935.65C1629.56 935.65 1634.62 932.13 1637.37 927.62H1637.59V952.48ZM1625.16 922.89C1617.24 922.89 1612.73 916.95 1612.73 906.28C1612.73 895.61 1615.92 887.91 1625.27 887.91C1634.29 887.91 1637.92 896.05 1637.92 906.28C1637.92 916.51 1633.08 922.89 1625.16 922.89ZM1661.27 903.42H1682.94V925.75H1694.38V903.42H1716.16V892.42H1694.38V870.09H1682.94V892.42H1661.27V903.42ZM1769.55 935.65C1784.62 935.65 1793.97 926.08 1794.96 914.09H1780.55C1779.56 920.47 1775.27 923.66 1769.22 923.66C1760.09 923.66 1755.8 916.51 1755.8 905.84C1755.8 894.95 1760.42 888.02 1769.44 888.02C1774.94 888.02 1778.79 891.76 1779.78 896.71H1794.41C1792.43 884.5 1783.41 876.03 1768.78 876.03C1751.62 876.03 1740.62 889.01 1740.62 905.84C1740.62 922.67 1751.73 935.65 1769.55 935.65ZM1816.44 855.35H1801.48V934H1816.44V901.99C1816.44 894.29 1821.28 889.01 1827.88 889.01C1834.15 889.01 1837.67 893.3 1837.67 899.35V934H1852.63V897.15C1852.63 884.83 1844.82 876.03 1833.16 876.03C1825.46 876.03 1820.84 879 1816.77 884.94H1816.44V855.35ZM1876.26 877.57H1861.85V934H1876.81V906.5C1876.81 894.62 1883.85 889.45 1893.64 890.44H1893.97V877.35C1893.09 877.02 1892.1 876.91 1890.45 876.91C1883.85 876.91 1880 880.21 1876.59 886.59H1876.26V877.57ZM1899.54 862.83C1899.54 867.67 1903.28 871.08 1907.9 871.08C1912.52 871.08 1916.26 867.67 1916.26 862.83C1916.26 858.1 1912.52 854.69 1907.9 854.69C1903.28 854.69 1899.54 858.1 1899.54 862.83ZM1900.42 934H1915.38V877.57H1900.42V934ZM1947.9 935.65C1961.98 935.65 1971.66 928.83 1971.66 917.5C1971.66 904.3 1961.21 901.66 1951.75 899.68C1943.72 898.03 1936.24 897.59 1936.24 892.75C1936.24 888.68 1940.09 886.48 1945.92 886.48C1952.3 886.48 1956.15 888.68 1956.81 894.73H1970.34C1969.24 883.4 1960.99 876.03 1946.14 876.03C1933.27 876.03 1923.15 881.86 1923.15 894.07C1923.15 906.39 1933.05 909.14 1943.17 911.12C1950.87 912.66 1958.02 913.21 1958.02 918.6C1958.02 922.56 1954.28 925.09 1947.68 925.09C1940.97 925.09 1936.35 922.23 1935.36 915.74H1921.5C1922.38 927.73 1931.51 935.65 1947.9 935.65ZM1974.03 887.47H1981.84V920.58C1981.84 931.25 1989.87 934.11 1997.13 934.11C2003.07 934.11 2006.48 933.89 2006.48 933.89V922.89C2006.48 922.89 2003.95 923 2002.08 923C1998.78 923 1996.47 921.57 1996.47 917.39V887.47H2006.15V877.57H1996.47V859.97H1981.84V877.57H1974.03V887.47ZM2012.97 862.83C2012.97 867.67 2016.71 871.08 2021.33 871.08C2025.95 871.08 2029.69 867.67 2029.69 862.83C2029.69 858.1 2025.95 854.69 2021.33 854.69C2016.71 854.69 2012.97 858.1 2012.97 862.83ZM2013.85 934H2028.81V877.57H2013.85V934ZM2059.02 924.87C2053.74 924.87 2050.22 923 2050.22 917.72C2050.22 912.44 2054.07 910.68 2061.88 908.92C2065.62 908.04 2069.69 907.16 2072.33 905.62V914.09C2072.33 919.59 2067.6 924.87 2059.02 924.87ZM2073.98 934H2088.39V933.45C2087.07 932.46 2086.41 929.93 2086.41 925.64V896.93C2086.41 883.73 2079.59 876.14 2062.65 876.14C2046.15 876.14 2038.78 884.83 2038.34 894.73H2051.65C2052.09 889.34 2055.5 886.81 2062.54 886.81C2068.81 886.81 2072 889.45 2072 893.52C2072 897.81 2067.71 898.58 2058.36 899.9C2045.82 901.66 2035.7 905.62 2035.7 918.05C2035.7 929.27 2043.84 935.32 2055.39 935.32C2065.07 935.32 2069.14 932.02 2072 927.73H2072.22C2072.55 930.26 2073.1 932.9 2073.98 934ZM2110.55 877.57H2095.92V934H2110.88V901.99C2110.88 894.29 2115.72 889.01 2122.32 889.01C2128.59 889.01 2132.11 893.3 2132.11 899.35V934H2147.07V897.15C2147.07 884.83 2139.26 876.03 2127.6 876.03C2119.9 876.03 2114.73 879.22 2110.88 885.27H2110.55V877.57ZM2199.19 923.11C2191.49 923.11 2187.2 916.73 2187.2 905.84C2187.2 895.39 2191.38 888.13 2199.63 888.13C2209.2 888.13 2212.72 895.39 2212.72 906.17C2212.72 916.51 2208.1 923.11 2199.19 923.11ZM2195.89 935.65C2203.81 935.65 2209.42 932.02 2212.72 926.63H2212.94V934H2227.35V855.35H2212.39V884.39H2212.06C2208.98 879.66 2204.03 876.03 2196.11 876.03C2182.03 876.03 2172.02 888.24 2172.02 905.84C2172.02 924.1 2181.7 935.65 2195.89 935.65ZM2257.65 924.87C2252.37 924.87 2248.85 923 2248.85 917.72C2248.85 912.44 2252.7 910.68 2260.51 908.92C2264.25 908.04 2268.32 907.16 2270.96 905.62V914.09C2270.96 919.59 2266.23 924.87 2257.65 924.87ZM2272.61 934H2287.02V933.45C2285.7 932.46 2285.04 929.93 2285.04 925.64V896.93C2285.04 883.73 2278.22 876.14 2261.28 876.14C2244.78 876.14 2237.41 884.83 2236.97 894.73H2250.28C2250.72 889.34 2254.13 886.81 2261.17 886.81C2267.44 886.81 2270.63 889.45 2270.63 893.52C2270.63 897.81 2266.34 898.58 2256.99 899.9C2244.45 901.66 2234.33 905.62 2234.33 918.05C2234.33 929.27 2242.47 935.32 2254.02 935.32C2263.7 935.32 2267.77 932.02 2270.63 927.73H2270.85C2271.18 930.26 2271.73 932.9 2272.61 934ZM2290.17 887.47H2297.98V920.58C2297.98 931.25 2306.01 934.11 2313.27 934.11C2319.21 934.11 2322.62 933.89 2322.62 933.89V922.89C2322.62 922.89 2320.09 923 2318.22 923C2314.92 923 2312.61 921.57 2312.61 917.39V887.47H2322.29V877.57H2312.61V859.97H2297.98V877.57H2290.17V887.47ZM2329.12 862.83C2329.12 867.67 2332.86 871.08 2337.48 871.08C2342.1 871.08 2345.84 867.67 2345.84 862.83C2345.84 858.1 2342.1 854.69 2337.48 854.69C2332.86 854.69 2329.12 858.1 2329.12 862.83ZM2330 934H2344.96V877.57H2330V934ZM2369.23 877.57H2354.6V934H2369.56V901.99C2369.56 894.29 2374.4 889.01 2381 889.01C2387.27 889.01 2390.79 893.3 2390.79 899.35V934H2405.75V897.15C2405.75 884.83 2397.94 876.03 2386.28 876.03C2378.58 876.03 2373.41 879.22 2369.56 885.27H2369.23V877.57ZM2439.61 918.6C2431.91 918.6 2426.85 912.99 2426.85 903.42C2426.85 893.96 2431.91 888.02 2439.5 888.02C2448.52 888.02 2452.92 895.06 2452.92 903.31C2452.92 911.67 2449.07 918.6 2439.61 918.6ZM2439.83 953.25C2448.19 953.25 2455.45 951.27 2460.18 946.87C2464.36 943.02 2466.89 937.63 2466.89 929.71V877.57H2452.48V883.51H2452.26C2448.85 878.78 2443.68 876.03 2436.64 876.03C2422.34 876.03 2412.22 886.81 2412.22 903.64C2412.22 920.69 2424.54 930.59 2437.08 930.59C2444.23 930.59 2448.52 927.73 2451.82 923.99H2452.15V930.15C2452.15 937.85 2448.08 941.92 2439.61 941.92C2432.68 941.92 2429.49 939.17 2428.28 935.65H2413.43C2414.97 946.65 2424.43 953.25 2439.83 953.25ZM2515.57 924.87C2510.29 924.87 2506.77 923 2506.77 917.72C2506.77 912.44 2510.62 910.68 2518.43 908.92C2522.17 908.04 2526.24 907.16 2528.88 905.62V914.09C2528.88 919.59 2524.15 924.87 2515.57 924.87ZM2530.53 934H2544.94V933.45C2543.62 932.46 2542.96 929.93 2542.96 925.64V896.93C2542.96 883.73 2536.14 876.14 2519.2 876.14C2502.7 876.14 2495.33 884.83 2494.89 894.73H2508.2C2508.64 889.34 2512.05 886.81 2519.09 886.81C2525.36 886.81 2528.55 889.45 2528.55 893.52C2528.55 897.81 2524.26 898.58 2514.91 899.9C2502.37 901.66 2492.25 905.62 2492.25 918.05C2492.25 929.27 2500.39 935.32 2511.94 935.32C2521.62 935.32 2525.69 932.02 2528.55 927.73H2528.77C2529.1 930.26 2529.65 932.9 2530.53 934ZM2580.74 923.22C2571.83 923.22 2567.1 916.51 2567.1 906.28C2567.1 896.16 2570.84 888.13 2580.19 888.13C2589.43 888.13 2593.17 895.61 2593.17 906.28C2593.17 916.95 2588.33 923.22 2580.74 923.22ZM2552.47 952.48H2567.43V927.62H2567.65C2570.84 932.46 2576.01 935.65 2583.93 935.65C2598.45 935.65 2608.35 924.1 2608.35 905.84C2608.35 888.24 2598.78 876.03 2583.82 876.03C2576.12 876.03 2570.84 879.66 2567.21 884.61H2566.88V877.57H2552.47V952.48ZM2643.58 923.22C2634.67 923.22 2629.94 916.51 2629.94 906.28C2629.94 896.16 2633.68 888.13 2643.03 888.13C2652.27 888.13 2656.01 895.61 2656.01 906.28C2656.01 916.95 2651.17 923.22 2643.58 923.22ZM2615.31 952.48H2630.27V927.62H2630.49C2633.68 932.46 2638.85 935.65 2646.77 935.65C2661.29 935.65 2671.19 924.1 2671.19 905.84C2671.19 888.24 2661.62 876.03 2646.66 876.03C2638.96 876.03 2633.68 879.66 2630.05 884.61H2629.72V877.57H2615.31V952.48Z" fill="#A7A7A7"/>
</svg>
