<svg width="2843" height="949" viewBox="0 0 2843 949" fill="none" xmlns="http://www.w3.org/2000/svg">
<rect width="2843" height="949" fill="black"/>
<path d="M433.6 781.8C539.2 781.8 608 700.2 608 564.2C608 441 539.2 347.4 432.8 347.4C376.8 347.4 341.6 370.6 316 405.8H313.6V197H183.2V769H308V717H309.6C335.2 759.4 379.2 781.8 433.6 781.8ZM396.8 678.6C343.2 678.6 309.6 632.2 309.6 564.2C309.6 497 337.6 446.6 395.2 446.6C448 446.6 476 493 476 563.4C476 634.6 448 678.6 396.8 678.6ZM835.95 781C887.95 781 929.55 767.4 963.95 743.4C999.95 718.6 1023.95 683.4 1032.75 646.6H905.55C894.35 672.2 871.95 687.4 837.55 687.4C783.95 687.4 753.55 653 745.55 597.8H1039.95C1040.75 514.6 1016.75 443.4 967.95 398.6C932.75 366.6 886.35 347.4 827.95 347.4C703.15 347.4 617.55 441 617.55 563.4C617.55 687.4 700.75 781 835.95 781ZM746.35 520.2C755.15 471.4 780.75 440.2 830.35 440.2C872.75 440.2 903.15 471.4 907.95 520.2H746.35ZM1068.41 769H1200.41V197H1068.41V769ZM1313.3 185C1272.5 185 1241.3 213.8 1241.3 254.6C1241.3 295.4 1272.5 324.2 1313.3 324.2C1354.1 324.2 1385.3 295.4 1385.3 254.6C1385.3 213.8 1354.1 185 1313.3 185ZM1247.7 769H1378.1V359.4H1247.7V769ZM1624.67 781C1676.67 781 1718.27 767.4 1752.67 743.4C1788.67 718.6 1812.67 683.4 1821.47 646.6H1694.27C1683.07 672.2 1660.67 687.4 1626.27 687.4C1572.67 687.4 1542.27 653 1534.27 597.8H1828.67C1829.47 514.6 1805.47 443.4 1756.67 398.6C1721.47 366.6 1675.07 347.4 1616.67 347.4C1491.87 347.4 1406.27 441 1406.27 563.4C1406.27 687.4 1489.47 781 1624.67 781ZM1535.07 520.2C1543.87 471.4 1569.47 440.2 1619.07 440.2C1661.47 440.2 1691.87 471.4 1696.67 520.2H1535.07ZM1952.61 769H2093.41L2235.01 359.4H2104.61L2047.81 544.2C2035.81 585 2025.41 626.6 2025.41 626.6H2023.81C2023.81 626.6 2013.41 585 2001.41 544.2L1945.41 359.4H1811.01L1952.61 769ZM2248.14 769H2378.54V585C2378.54 496.2 2429.74 457 2509.74 468.2H2512.94V356.2C2507.34 353.8 2499.34 353 2487.34 353C2437.74 353 2404.14 374.6 2375.34 423.4H2372.94V359.4H2248.14V769Z" fill="white"/>
<path d="M2600.79 626.6C2557.59 626.6 2526.39 657 2526.39 699.4C2526.39 741.8 2557.59 773 2600.79 773C2643.99 773 2675.99 741.8 2675.99 699.4C2675.99 657 2643.99 626.6 2600.79 626.6Z" fill="#FF0099"/>
</svg>
