<svg width="998" height="998" viewBox="0 0 998 998" fill="none" xmlns="http://www.w3.org/2000/svg">
<rect width="998" height="998" fill="black"/>
<path d="M503.6 796.8C609.2 796.8 678 715.2 678 579.2C678 456 609.2 362.4 502.8 362.4C446.8 362.4 411.6 385.6 386 420.8H383.6V212H253.2V784H378V732H379.6C405.2 774.4 449.2 796.8 503.6 796.8ZM466.8 693.6C413.2 693.6 379.6 647.2 379.6 579.2C379.6 512 407.6 461.6 465.2 461.6C518 461.6 546 508 546 578.4C546 649.6 518 693.6 466.8 693.6Z" fill="white"/>
<path d="M768.35 641.6C725.15 641.6 693.95 672 693.95 714.4C693.95 756.8 725.15 788 768.35 788C811.55 788 843.55 756.8 843.55 714.4C843.55 672 811.55 641.6 768.35 641.6Z" fill="#FF0099"/>
<path d="M503.6 796.8C609.2 796.8 678 715.2 678 579.2C678 456 609.2 362.4 502.8 362.4C446.8 362.4 411.6 385.6 386 420.8H383.6V212H253.2V784H378V732H379.6C405.2 774.4 449.2 796.8 503.6 796.8ZM466.8 693.6C413.2 693.6 379.6 647.2 379.6 579.2C379.6 512 407.6 461.6 465.2 461.6C518 461.6 546 508 546 578.4C546 649.6 518 693.6 466.8 693.6Z" fill="white"/>
<path d="M768.35 641.6C725.15 641.6 693.95 672 693.95 714.4C693.95 756.8 725.15 788 768.35 788C811.55 788 843.55 756.8 843.55 714.4C843.55 672 811.55 641.6 768.35 641.6Z" fill="#FF0099"/>
</svg>
