<svg width="920" height="221" viewBox="0 0 920 221" fill="none" xmlns="http://www.w3.org/2000/svg">
<path d="M92.4134 220.181C131.386 220.181 156.778 190.076 156.778 139.901C156.778 94.4477 131.386 59.9152 92.1181 59.9152C71.4506 59.9152 58.4596 68.4746 49.0116 81.4611H48.1258V4.42723H0V215.459H46.059V196.274H46.6496C56.0976 211.917 72.3363 220.181 92.4134 220.181ZM78.8318 182.107C59.0501 182.107 46.6496 164.988 46.6496 139.901C46.6496 115.108 56.9833 96.5137 78.2413 96.5137C97.7279 96.5137 108.062 113.632 108.062 139.605C108.062 165.874 97.7279 182.107 78.8318 182.107Z" fill="black"/>
<path d="M240.906 219.886C260.097 219.886 275.45 214.868 288.146 206.014C301.432 196.864 310.29 183.878 313.537 170.301H266.593C262.459 179.746 254.192 185.354 241.496 185.354C221.715 185.354 210.495 172.662 207.542 152.297H316.195C316.49 121.601 307.632 95.3331 289.622 78.8048C276.631 66.9988 259.507 59.9152 237.953 59.9152C191.894 59.9152 160.302 94.4477 160.302 139.605C160.302 185.354 191.008 219.886 240.906 219.886ZM207.838 123.667C211.085 105.663 220.534 94.1525 238.839 94.1525C254.487 94.1525 265.707 105.663 267.478 123.667H207.838Z" fill="black"/>
<path d="M326.697 215.459H375.413V4.42723H326.697V215.459Z" fill="black"/>
<path d="M417.078 0C402.02 0 390.505 10.6254 390.505 25.678C390.505 40.7306 402.02 51.3559 417.078 51.3559C432.136 51.3559 443.651 40.7306 443.651 25.678C443.651 10.6254 432.136 0 417.078 0ZM392.867 215.459H440.993V64.3425H392.867V215.459Z" fill="black"/>
<path d="M531.993 219.886C551.184 219.886 566.537 214.868 579.233 206.014C592.519 196.864 601.376 183.878 604.624 170.301H557.679C553.546 179.746 545.279 185.354 532.583 185.354C512.801 185.354 501.582 172.662 498.629 152.297H607.281C607.577 121.601 598.719 95.3331 580.709 78.8048C567.718 66.9988 550.593 59.9152 529.04 59.9152C482.981 59.9152 451.389 94.4477 451.389 139.605C451.389 185.354 482.095 219.886 531.993 219.886ZM498.925 123.667C502.172 105.663 511.62 94.1525 529.926 94.1525C545.574 94.1525 556.794 105.663 558.565 123.667H498.925Z" fill="black"/>
<path d="M653.022 215.459H704.986L757.246 64.3425H709.12L688.157 132.522C683.728 147.574 679.89 162.922 679.89 162.922H679.299C679.299 162.922 675.461 147.574 671.032 132.522L650.365 64.3425H600.763L653.022 215.459Z" fill="black"/>
<path d="M762.092 215.459H810.218V147.574C810.218 114.813 829.114 100.351 858.639 104.483H859.82V63.1619C857.753 62.2764 854.8 61.9813 850.372 61.9813C832.066 61.9813 819.666 69.9503 809.037 87.9544H808.151V64.3425H762.092V215.459Z" fill="black"/>
<ellipse cx="892.32" cy="190.002" rx="27.6797" ry="27.6702" fill="#FF0099"/>
</svg>
